<svg xmlns="http://www.w3.org/2000/svg" width="1000" height="360" viewBox="0 0 1000 360">
  <style>.shell{fill:#f7f9f7;stroke:#35474f;stroke-width:6}.metal{fill:#82949a;stroke:#35474f;stroke-width:4}.base{fill:#d8e2e0;stroke:#82949a;stroke-width:4}.light{stroke-width:8;stroke-linecap:round}</style>
  <defs><g id="base"><ellipse cy="128" rx="88" ry="22" fill="#35474f" opacity=".16"/><path d="M0 72 96 112 0 152-96 112Z" class="base"/><path d="M0 64 82 98 0 132-82 98Z" class="shell"/></g></defs>
  <g id="press" transform="translate(100 160)"><use href="#base"/><rect x="-67" y="-120" width="28" height="190" rx="9" class="shell"/><rect x="39" y="-120" width="28" height="190" rx="9" class="shell"/><rect x="-72" y="-142" width="144" height="42" rx="11" class="shell"/><rect x="-13" y="-100" width="26" height="92" class="metal"/><rect x="-37" y="-18" width="74" height="22" rx="7" fill="#e1a23a" stroke="#35474f" stroke-width="4"/></g>
  <g id="mill" transform="translate(300 160)"><use href="#base"/><rect x="-70" y="-95" width="140" height="150" rx="22" class="shell"/><rect x="-50" y="-73" width="100" height="94" rx="16" fill="#43c6d5" opacity=".22" stroke="#43c6d5" stroke-width="5"/><rect x="-12" y="-120" width="24" height="104" class="metal"/><circle cy="2" r="25" fill="#35474f" stroke="#43c6d5" stroke-width="5"/></g>
  <g id="wire-drawer" transform="translate(500 160)"><use href="#base"/><rect x="-78" y="-80" width="156" height="136" rx="21" class="shell"/><circle cx="-35" cy="-20" r="31" fill="#35474f" stroke="#c77845" stroke-width="6"/><circle cx="35" cy="-20" r="31" fill="#35474f" stroke="#c77845" stroke-width="6"/><path d="M-94-20H94" stroke="#c77845" stroke-width="8"/></g>
  <g id="injection" transform="translate(700 160)"><use href="#base"/><rect x="-74" y="-52" width="108" height="108" rx="18" class="shell"/><rect x="-4" y="-108" width="88" height="62" rx="22" class="metal"/><path d="M-5-92-46-63-5-37Z" fill="#8b72c7" stroke="#35474f" stroke-width="4"/><rect x="-50" y="-34" width="60" height="54" rx="9" fill="#8b72c7" opacity=".25" stroke="#8b72c7" stroke-width="4"/></g>
  <g id="assembly" transform="translate(900 160)"><use href="#base"/><rect x="-54" y="-35" width="108" height="92" rx="18" class="shell"/><path d="M-66-98-26-38M66-98 26-38" class="metal" stroke-width="16"/><circle cx="-66" cy="-98" r="14" fill="#16a6a3"/><circle cx="66" cy="-98" r="14" fill="#16a6a3"/><circle cy="8" r="28" fill="#16a6a3" opacity=".25" stroke="#16a6a3" stroke-width="5"/></g>
</svg>
