<svg xmlns="http://www.w3.org/2000/svg" width="288" height="48" viewBox="0 0 288 48" fill="none" stroke="#e8eff1" stroke-width="4" stroke-linecap="round" stroke-linejoin="round">
  <g id="zoom-in"><circle cx="20" cy="20" r="12"/><path d="m29 29 12 12M14 20h12M20 14v12"/></g>
  <g id="zoom-out" transform="translate(48)"><circle cx="20" cy="20" r="12"/><path d="m29 29 12 12M14 20h12"/></g>
  <g id="center" transform="translate(96)"><path d="m8 18 16-12 16 12M13 18v22h22V18"/></g>
  <g id="follow" transform="translate(144)"><circle cx="24" cy="24" r="16"/><circle cx="24" cy="24" r="5" fill="#16a6a3" stroke="none"/></g>
  <g id="grid" transform="translate(192)"><path d="M8 8v32M24 8v32M40 8v32M8 8h32M8 24h32M8 40h32"/></g>
  <g id="labels" transform="translate(240)"><rect x="6" y="10" width="36" height="28" rx="6"/><path d="M13 19h22M13 28h16"/></g>
</svg>
